HIERARCHY
ROOT Hips
{
	OFFSET -3.958830 18.904000 13.208200
	CHANNELS 6 Xposition Yposition Zposition Zrotation Yrotation Xrotation 
	JOINT LHipJoint
	{
		OFFSET 0.000000 0.000000 0.000000
		CHANNELS 3 Zrotation Yrotation Xrotation
		JOINT LeftUpLeg
		{
			OFFSET 1.800000 -1.400000 0.085000
			CHANNELS 3 Zrotation Yrotation Xrotation
			JOINT LeftLeg
			{
				OFFSET 2.215000 -6.000000 0.000000
				CHANNELS 3 Zrotation Yrotation Xrotation
				JOINT LeftFoot
				{
					OFFSET 2.500000 -6.900000 0.000000
					CHANNELS 3 Zrotation Yrotation Xrotation
					JOINT LeftToeBase
					{
						OFFSET 0.200000 -0.500000 1.950000
						CHANNELS 3 Zrotation Yrotation Xrotation
						End Site
						{
							OFFSET 0.000000 0.000000 0.000000
						}
					}
				}
			}
		}
	}
	JOINT RHipJoint
	{
		OFFSET 0.000000 0.000000 0.000000
		CHANNELS 3 Zrotation Yrotation Xrotation
		JOINT RightUpLeg
		{
			OFFSET -1.800000 -1.400000 0.085000
			CHANNELS 3 Zrotation Yrotation Xrotation
			JOINT RightLeg
			{
				OFFSET -2.215000 -6.000000 0.000000
				CHANNELS 3 Zrotation Yrotation Xrotation
				JOINT RightFoot
				{
					OFFSET -2.500000 -6.900000 0.000000
					CHANNELS 3 Zrotation Yrotation Xrotation
					JOINT RightToeBase
					{
						OFFSET -0.200000 -0.500000 1.950000
						CHANNELS 3 Zrotation Yrotation Xrotation
						End Site
						{
							OFFSET 0.000000 0.000000 0.000000
						}
					}
				}
			}
		}
	}
	JOINT LowerBack
	{
		OFFSET 0.000000 0.000000 0.000000
		CHANNELS 3 Zrotation Yrotation Xrotation
		JOINT Spine
		{
			OFFSET -0.087000 1.940000 -0.288900
			CHANNELS 3 Zrotation Yrotation Xrotation
			JOINT Spine1
			{
				OFFSET 0.000000 1.950000 0.060000
				CHANNELS 3 Zrotation Yrotation Xrotation
				JOINT Neck
				{
					OFFSET 0.000000 0.000000 0.000000
					CHANNELS 3 Zrotation Yrotation Xrotation
					JOINT Neck1
					{
						OFFSET 0.000000 1.600000 0.340000
						CHANNELS 3 Zrotation Yrotation Xrotation
						JOINT Head
						{
							OFFSET 0.000000 1.667000 -0.240000
							CHANNELS 3 Zrotation Yrotation Xrotation
							End Site
							{
								OFFSET 0.000000 0.000000 0.000000
							}
						}
					}
				}
				JOINT LeftShoulder
				{
					OFFSET 0.000000 0.000000 0.000000
					CHANNELS 3 Zrotation Yrotation Xrotation
					JOINT LeftArm
					{
						OFFSET 2.700000 1.550000 -0.730000
						CHANNELS 3 Zrotation Yrotation Xrotation
						JOINT LeftForeArm
						{
							OFFSET 5.450000 0.000000 0.000000
							CHANNELS 3 Zrotation Yrotation Xrotation
							JOINT LeftHand
							{
								OFFSET 3.450000 0.000000 0.000000
								CHANNELS 3 Zrotation Yrotation Xrotation
								JOINT LeftHandIndex1
								{
									OFFSET 0.750000 0.000000 0.000000
									CHANNELS 3 Zrotation Yrotation Xrotation
									End Site
									{
										OFFSET 0.000000 0.000000 0.000000
									}
								}
							}
						}
					}
				}
				JOINT RightShoulder
				{
					OFFSET 0.000000 0.000000 0.000000
					CHANNELS 3 Zrotation Yrotation Xrotation
					JOINT RightArm
					{
						OFFSET -2.700000 1.550000 -0.730000
						CHANNELS 3 Zrotation Yrotation Xrotation
						JOINT RightForeArm
						{
							OFFSET -5.450000 0.000000 0.000000
							CHANNELS 3 Zrotation Yrotation Xrotation
							JOINT RightHand
							{
								OFFSET -3.450000 0.000000 0.000000
								CHANNELS 3 Zrotation Yrotation Xrotation
								JOINT RightHandIndex1
								{
									OFFSET -0.750000 0.000000 0.000000
									CHANNELS 3 Zrotation Yrotation Xrotation
									End Site
									{
										OFFSET 0.000000 0.000000 0.000000
									}
								}
							}
						}
					}
				}
			}
		}
	}
}
MOTION
Frames: 7
Frame Time: 0.016667
-2.948520 16.911390 -0.470020 -8.501216 -5.883593 -16.913068 -14.637823 13.746044 2.384302 29.144703 0.967487 0.265805 -0.809550 8.921711 23.844387 -0.108950 7.025220 2.377329 0.581400 -0.055770 0.572210 18.547830 -11.719143 2.783459 -2.472785 3.015837 -8.345320 4.281302 -8.448976 36.840759 -0.902918 -5.929209 2.649792 -0.036620 0.291140 0.160870 -4.514602 -0.817545 -7.672365 2.123089 -6.528784 21.780853 -23.589100 -0.668637 10.946729 6.128886 -7.100511 -18.275629 -16.755639 10.418502 40.027128 7.962650 2.885040 -10.416410 6.401834 -9.072927 5.591074 -1.721759 6.969944 -7.214191 46.566483 -29.145829 -12.136379 -3.584831 2.783243 0.958660 -0.019250 0.027400 0.334240 -18.194292 17.810502 11.893565 -12.735109 -5.452445 -6.111820 -17.677963 31.950966 -2.156448 1.877789 -2.203691 -0.369070 0.368230 -0.174200 -0.347510 
-2.967560 16.929260 -0.463050 -8.449951 -5.411520 -17.494896 -14.649912 13.847103 2.367561 28.995865 0.895382 0.511600 0.126981 8.522847 23.681150 -0.076647 6.874164 2.434785 0.600540 -0.023510 0.626930 18.511487 -11.785024 2.770397 -2.193965 2.596545 -7.579739 2.998410 -7.989898 36.541954 -0.919806 -5.783553 2.724296 -0.055590 0.247550 0.157560 -4.435032 -0.930663 -7.659860 1.864550 -6.632698 22.398550 -23.188032 -0.488043 11.786077 6.398815 -6.514291 -18.846093 -16.109183 9.458761 41.854768 7.355480 2.637840 -11.874720 6.217758 -9.223587 5.319027 -1.000660 6.290551 -7.493186 46.237014 -28.698488 -11.957348 -3.581804 2.748366 0.971270 -0.047520 0.084410 0.328380 -18.517288 17.962263 12.841164 -13.522017 -6.260615 -5.839034 -18.420548 25.498045 -1.671875 2.059582 -2.059877 -0.334310 0.382120 -0.207420 -0.345510 
-3.004590 16.942540 -0.443990 -7.886576 -5.085620 -18.316265 -14.714550 13.887763 2.432409 28.762846 0.871996 1.450740 -0.899495 8.780003 23.218530 -0.008303 6.955105 2.427231 0.592040 0.017920 0.568370 18.449177 -11.723362 2.730574 -2.245790 2.365601 -6.678367 2.784828 -8.112708 37.110046 -0.944411 -5.929325 2.705442 -0.041910 0.294770 0.162200 -4.253634 -1.216198 -7.631059 0.783569 -6.807052 23.418385 -22.221825 -0.482715 12.993205 6.586953 -6.766342 -19.138789 -16.177457 9.105587 39.836306 7.919370 2.255440 -11.969120 7.037876 -8.121820 4.883481 -1.713097 5.308755 -7.852972 46.963004 -28.214750 -12.324082 -3.649544 2.792823 0.911810 -0.012240 0.068320 0.350460 -19.466358 17.459663 13.809831 -15.252737 -6.459809 -4.670787 -18.468552 15.239314 -0.985225 2.311430 -1.802526 -0.307860 0.400710 -0.197700 -0.299560 
-3.048150 16.955380 -0.428780 -7.566921 -4.093799 -19.371392 -14.764134 13.881712 2.515925 28.953625 0.780964 2.300379 -1.578018 8.793802 22.176697 0.053048 6.955748 2.423328 0.634270 0.077980 0.566000 18.396759 -11.716112 2.684330 -2.382817 1.845174 -5.275206 2.539385 -8.150102 36.697349 -0.988010 -5.978409 2.679980 -0.030400 0.274140 0.221800 -4.123092 -1.297222 -7.647187 -0.076961 -6.661656 24.810758 -21.045992 -0.471736 13.528629 6.603227 -6.519391 -19.043378 -15.606663 8.295787 39.721893 7.652370 1.742120 -12.373640 7.279633 -8.099938 4.675329 -0.621326 4.468034 -7.895709 47.208891 -28.441470 -12.551291 -3.664948 2.882328 0.886670 -0.009840 0.102630 0.373530 -19.647648 17.107060 14.246572 -15.748699 -8.192875 -5.061055 -20.512162 12.377892 -1.127741 2.514392 -1.810619 -0.241160 0.347050 -0.220140 -0.270170 
-3.090940 16.966050 -0.428440 -7.740970 -3.348976 -20.365202 -14.785288 13.873835 2.531507 29.502241 0.668707 3.217444 -0.868222 8.396879 20.851462 -0.024277 6.920512 2.440369 0.657580 0.094630 0.557280 18.392123 -11.682612 2.652166 -1.846407 1.340468 -3.816488 1.567566 -7.794744 36.019212 -0.973136 -5.957455 2.685638 0.022760 0.281550 0.204050 -4.104786 -1.375149 -7.598569 0.201118 -7.045023 25.979709 -20.640107 -0.761609 14.547397 6.556913 -7.082855 -18.395653 -16.407314 8.352500 37.925135 7.382470 1.511600 -12.679690 7.854801 -8.039005 4.657720 -0.445844 2.737446 -7.955674 47.776747 -25.722988 -12.171349 -3.712861 2.917703 0.891300 -0.000160 0.060810 0.374310 -20.037625 16.663863 13.677207 -15.873968 -9.216772 -6.061337 -23.336364 14.004061 -1.798544 2.546555 -1.981429 -0.278010 0.357060 -0.206940 -0.291720 
-3.141260 16.978860 -0.422620 -7.570229 -2.744942 -20.412117 -14.800192 13.806546 2.586724 29.648076 0.579743 3.710622 -1.223494 8.254969 19.201442 -0.058628 6.888350 2.457720 0.675220 0.080880 0.589080 18.394532 -11.615962 2.640506 -1.819586 1.181632 -3.331415 2.240004 -8.035480 35.431091 -0.981662 -5.966457 2.655686 0.031320 0.267540 0.216860 -4.106698 -1.404039 -7.623849 0.559842 -6.954385 25.487283 -20.600334 -0.527556 15.315768 6.368232 -6.793385 -18.205613 -16.167479 8.355560 38.874414 7.067400 1.430370 -12.026680 8.170769 -8.841039 4.852248 0.914746 1.737288 -7.735732 46.917417 -24.324331 -11.505924 -3.724072 2.939672 0.914160 -0.006370 0.059680 0.368180 -20.043644 16.817125 13.392146 -15.239184 -9.685082 -7.031050 -25.831865 16.697248 -2.545968 2.562693 -2.126372 -0.291080 0.339150 -0.209390 -0.314460 
-3.179400 16.980990 -0.389660 -8.205539 -2.180742 -18.863622 -14.807720 13.674802 2.722757 30.178579 0.385773 3.187813 -2.264979 8.227109 16.964227 -0.057501 6.770228 2.460279 0.687720 0.095620 0.640200 18.423190 -11.458111 2.637879 -0.682381 1.220321 -4.257728 1.983980 -7.800994 34.961835 -0.977431 -5.749684 2.709320 0.011630 0.182850 0.214510 -4.161246 -1.487365 -7.731470 2.994158 -7.022668 22.574349 -21.125881 -0.487126 15.168407 6.416302 -6.051077 -18.291556 -16.181072 8.546228 43.400709 6.008000 1.672190 -12.147300 6.947838 -10.656075 5.332304 2.207876 1.112872 -7.506852 47.330451 -24.046107 -11.280780 -3.670657 2.900155 0.946740 -0.054230 0.120930 0.339330 -19.148347 17.558056 12.967257 -15.791312 -9.016026 -6.869233 -26.753096 18.958929 -2.802879 2.527761 -2.083915 -0.260160 0.310560 -0.229410 -0.333730 
